<svg width="104" height="104" viewBox="0 0 104 104" fill="none" xmlns="http://www.w3.org/2000/svg">
  <defs>
    <linearGradient id="bgGradient" x1="0" y1="0" x2="104" y2="104" gradientUnits="userSpaceOnUse">
      <stop stop-color="#4EF18A"/>
      <stop offset="1" stop-color="#2FFFE3"/>
    </linearGradient>
  </defs>
  <!-- Rounded square background -->
  <rect x="0" y="0" width="104" height="104" rx="24" fill="url(#bgGradient)"/>
  <!-- Classic puzzle piece shape -->
  <path d="M52 36c2.2-4 8.8-4 11 0 1.2 2.2 3.8 3.2 6.1 2.2 4-1.7 8.7 2.7 7 7-1 2.3 0 4.9 2.2 6.1 4 2.2 4 8.8 0 11-2.2 1.2-3.2 3.8-2.2 6.1 1.7 4-2.7 8.7-7 7-2.3-1-4.9 0-6.1 2.2-2.2 4-8.8 4-11 0-1.2-2.2-3.8-3.2-6.1-2.2-4 1.7-8.7-2.7-7-7 1-2.3 0-4.9-2.2-6.1-4-2.2-4-8.8 0-11 2.2-1.2 3.2-3.8 2.2-6.1-1.7-4 2.7-8.7 7-7 2.3 1 4.9 0 6.1-2.2z" fill="#fff"/>
</svg> 