<svg width="48" height="48" viewBox="0 0 48 48" fill="none" xmlns="http://www.w3.org/2000/svg">
  <!-- Background with plain blue -->
  <defs>
    <filter id="shadow" x="-20%" y="-20%" width="140%" height="140%">
      <feDropShadow dx="0" dy="2" stdDeviation="2" flood-color="#000000" flood-opacity="0.1"/>
    </filter>
  </defs>
  
  <!-- Background -->
  <rect width="48" height="48" rx="8" fill="#3B82F6"/>
  
  <!-- Main icon with enhanced styling -->
  <g filter="url(#shadow)">
    <!-- Monitor/TV body -->
    <path d="M14 30L6 38H42L34 30M14 30V14H19M14 30H34M34 30V14H29M24 14V6M24 14H19M24 14H29M24 6H19V14M24 6H29V14" 
          stroke="#FFFFFF" 
          stroke-width="2" 
          stroke-linecap="round" 
          stroke-linejoin="round"
          fill="none"/>
    
    <!-- Screen glow effect -->
    <path d="M14 30L6 38H42L34 30" 
          stroke="rgba(255,255,255,0.3)" 
          stroke-width="1" 
          fill="none"/>
    
    <!-- Stand details -->
    <path d="M26 9H27" stroke="#FFFFFF" stroke-width="1.5" stroke-linecap="round"/>
    <path d="M21 9H22" stroke="#FFFFFF" stroke-width="1.5" stroke-linecap="round"/>
    
    <!-- Additional detail lines -->
    <path d="M16 32L32 32" stroke="rgba(255,255,255,0.4)" stroke-width="0.5" stroke-linecap="round"/>
    <path d="M18 34L30 34" stroke="rgba(255,255,255,0.3)" stroke-width="0.5" stroke-linecap="round"/>
  </g>
</svg>
